<svg width="262" height="262" viewBox="0 0 262 262" fill="none" xmlns="http://www.w3.org/2000/svg">
<g clip-path="url(#clip0_18_32)">
<path d="M25.1955 220.712L22.888 211.639C18.7967 209.91 14.611 208.413 10.3506 207.154L10.0593 211.371L8.87816 206.725C3.59453 205.219 0 204.557 0 204.557C0 204.557 4.85414 222.965 15.0387 237.038L26.9046 239.116L17.6863 240.441C18.9674 241.978 20.3442 243.433 21.8085 244.797C36.6224 258.507 53.1226 264.797 58.6623 258.847C64.202 252.896 56.6838 236.959 41.8698 223.25C37.2774 219 31.5083 215.59 25.7333 212.905L25.1955 220.712Z" fill="#F2F2F2"/>
<path d="M47.1396 210.857L49.8685 201.9C47.2627 198.312 44.456 194.873 41.4617 191.6L39.0262 195.06L40.4233 190.474C36.6804 186.463 33.9469 184.044 33.9469 184.044C33.9469 184.044 28.5599 202.304 29.9809 219.599L39.0613 227.494L30.4815 223.877C30.7817 225.853 31.2063 227.809 31.7527 229.732C37.3265 249.102 48.1903 262.99 56.0174 260.751C63.8446 258.513 65.6716 240.995 60.0977 221.624C58.3699 215.619 55.1993 209.726 51.6477 204.452L47.1396 210.857Z" fill="#F2F2F2"/>
<path d="M182.822 62.068H181.383V22.7545C181.383 19.7663 180.793 16.8074 179.646 14.0467C178.499 11.286 176.818 8.77758 174.698 6.66464C172.579 4.55169 170.063 2.8756 167.294 1.73208C164.525 0.588564 161.558 3.8147e-06 158.56 3.8147e-06H75.0174C68.9645 3.8147e-06 63.1595 2.39734 58.8794 6.66464C54.5993 10.9319 52.1948 16.7196 52.1948 22.7545V238.435C52.1948 241.423 52.7851 244.382 53.9321 247.143C55.079 249.904 56.7601 252.412 58.8794 254.525C60.9987 256.638 63.5146 258.314 66.2836 259.457C69.0525 260.601 72.0203 261.19 75.0174 261.19H158.56C164.613 261.189 170.418 258.792 174.698 254.525C178.978 250.257 181.383 244.47 181.383 238.435V90.0521H182.822L182.822 62.068Z" fill="#E6E6E6"/>
<path d="M159.481 5.91772H148.577C149.079 7.14362 149.27 8.47369 149.134 9.79073C148.999 11.1078 148.541 12.3714 147.8 13.4702C147.059 14.569 146.059 15.4693 144.887 16.0918C143.715 16.7143 142.407 17.0399 141.079 17.0398H93.2183C91.8905 17.0398 90.583 16.7141 89.4111 16.0916C88.2392 15.469 87.2389 14.5687 86.4982 13.4699C85.7575 12.3711 85.2992 11.1075 85.1637 9.79055C85.0282 8.47357 85.2196 7.14357 85.7211 5.91772H75.5359C71.0156 5.91772 66.6805 7.70803 63.4842 10.8948C60.2879 14.0816 58.4922 18.4038 58.4922 22.9105V238.278C58.4922 242.785 60.2879 247.107 63.4842 250.294C66.6805 253.48 71.0156 255.271 75.5359 255.271H159.481C164.002 255.271 168.337 253.48 171.533 250.294C174.729 247.107 176.525 242.785 176.525 238.278V22.9102C176.525 18.4035 174.729 14.0814 171.533 10.8947C168.337 7.70798 164.001 5.91772 159.481 5.91772Z" fill="white"/>
<path d="M106.812 91.7091C106.811 90.2037 107.209 88.7248 107.964 87.4212C108.719 86.1177 109.805 85.0354 111.113 84.2834C109.806 83.5306 108.323 83.1342 106.813 83.134C105.303 83.1338 103.82 83.5299 102.513 84.2825C101.205 85.035 100.119 86.1175 99.3643 87.421C98.6094 88.7246 98.2119 90.2033 98.2119 91.7086C98.2119 93.2139 98.6094 94.6926 99.3643 95.9962C100.119 97.2998 101.205 98.3822 102.513 99.1348C103.82 99.8873 105.303 100.283 106.813 100.283C108.323 100.283 109.806 99.8866 111.113 99.1338C109.805 98.382 108.719 97.2999 107.964 95.9965C107.209 94.6931 106.811 93.2144 106.812 91.7091Z" fill="#CCCCCC"/>
<path d="M117.623 91.7091C117.623 90.2037 118.02 88.7248 118.776 87.4212C119.531 86.1176 120.617 85.0354 121.925 84.2834C120.618 83.5306 119.135 83.1342 117.625 83.134C116.115 83.1338 114.632 83.5299 113.324 84.2825C112.017 85.035 110.931 86.1175 110.176 87.421C109.421 88.7246 109.024 90.2033 109.024 91.7086C109.024 93.2139 109.421 94.6926 110.176 95.9962C110.931 97.2998 112.017 98.3822 113.324 99.1348C114.632 99.8873 116.115 100.283 117.625 100.283C119.135 100.283 120.618 99.8866 121.925 99.1338C120.617 98.382 119.531 97.2999 118.776 95.9965C118.021 94.6931 117.623 93.2144 117.623 91.7091Z" fill="#CCCCCC"/>
<path d="M128.19 100.283C132.939 100.283 136.79 96.4444 136.79 91.7088C136.79 86.9732 132.939 83.1342 128.19 83.1342C123.44 83.1342 119.589 86.9732 119.589 91.7088C119.589 96.4444 123.44 100.283 128.19 100.283Z" fill="#0E7FC1"/>
<path d="M142.563 118.491H92.4383C91.9611 118.49 91.5037 118.301 91.1662 117.964C90.8288 117.628 90.639 117.172 90.6384 116.696V66.7214C90.639 66.2456 90.8288 65.7895 91.1662 65.4531C91.5037 65.1167 91.9611 64.9274 92.4383 64.9269H142.563C143.04 64.9274 143.497 65.1167 143.835 65.4531C144.172 65.7895 144.362 66.2456 144.363 66.7214V116.696C144.362 117.172 144.172 117.628 143.835 117.964C143.497 118.301 143.04 118.49 142.563 118.491ZM92.4383 65.6451C92.152 65.6454 91.8775 65.7589 91.6751 65.9608C91.4726 66.1626 91.3587 66.4363 91.3585 66.7218V116.697C91.3587 116.982 91.4726 117.256 91.6751 117.458C91.8775 117.659 92.152 117.773 92.4383 117.773H142.563C142.849 117.773 143.123 117.659 143.326 117.458C143.528 117.256 143.642 116.982 143.643 116.697V66.7218C143.642 66.4363 143.528 66.1626 143.326 65.9608C143.123 65.7589 142.849 65.6454 142.563 65.6451H92.4383Z" fill="#CCCCCC"/>
<path d="M153.755 156.799H76.8792V157.517H153.755V156.799Z" fill="#CCCCCC"/>
<path d="M79.3069 152.317C80.6477 152.317 81.7347 151.233 81.7347 149.896C81.7347 148.559 80.6477 147.476 79.3069 147.476C77.9661 147.476 76.8792 148.559 76.8792 149.896C76.8792 151.233 77.9661 152.317 79.3069 152.317Z" fill="#0E7FC1"/>
<path d="M153.755 181.003H76.8792V181.721H153.755V181.003Z" fill="#CCCCCC"/>
<path d="M79.3069 176.521C80.6477 176.521 81.7347 175.437 81.7347 174.101C81.7347 172.764 80.6477 171.68 79.3069 171.68C77.9661 171.68 76.8792 172.764 76.8792 174.101C76.8792 175.437 77.9661 176.521 79.3069 176.521Z" fill="#0E7FC1"/>
<path d="M152.348 208.565H128.053C127.633 208.565 127.231 208.398 126.934 208.102C126.638 207.806 126.471 207.405 126.47 206.987V198.497C126.471 198.079 126.638 197.678 126.934 197.382C127.231 197.086 127.633 196.919 128.053 196.919H152.348C152.768 196.919 153.17 197.086 153.467 197.382C153.763 197.678 153.93 198.079 153.931 198.497V206.987C153.93 207.405 153.763 207.806 153.467 208.102C153.17 208.398 152.768 208.565 152.348 208.565Z" fill="#0E7FC1"/>
<path d="M87.2261 152.317C88.5669 152.317 89.6539 151.233 89.6539 149.896C89.6539 148.559 88.5669 147.476 87.2261 147.476C85.8853 147.476 84.7983 148.559 84.7983 149.896C84.7983 151.233 85.8853 152.317 87.2261 152.317Z" fill="#0E7FC1"/>
<path d="M95.1456 152.317C96.4864 152.317 97.5733 151.233 97.5733 149.896C97.5733 148.559 96.4864 147.476 95.1456 147.476C93.8047 147.476 92.7178 148.559 92.7178 149.896C92.7178 151.233 93.8047 152.317 95.1456 152.317Z" fill="#0E7FC1"/>
<path d="M87.2261 176.521C88.5669 176.521 89.6539 175.437 89.6539 174.101C89.6539 172.764 88.5669 171.68 87.2261 171.68C85.8853 171.68 84.7983 172.764 84.7983 174.101C84.7983 175.437 85.8853 176.521 87.2261 176.521Z" fill="#0E7FC1"/>
<path d="M95.1456 176.521C96.4864 176.521 97.5733 175.437 97.5733 174.101C97.5733 172.764 96.4864 171.68 95.1456 171.68C93.8047 171.68 92.7178 172.764 92.7178 174.101C92.7178 175.437 93.8047 176.521 95.1456 176.521Z" fill="#0E7FC1"/>
<path d="M198.625 171.654C198.797 171.733 198.963 171.825 199.121 171.93L214.898 165.217L215.461 161.073L221.765 161.035L221.392 170.538L200.569 176.029C200.525 176.173 200.473 176.314 200.412 176.452C200.111 177.093 199.626 177.63 199.02 177.997C198.413 178.364 197.712 178.545 197.003 178.515C196.294 178.486 195.61 178.249 195.036 177.833C194.462 177.417 194.024 176.842 193.777 176.178C193.53 175.515 193.485 174.794 193.648 174.106C193.811 173.417 194.174 172.792 194.692 172.309C195.21 171.825 195.859 171.505 196.559 171.389C197.259 171.272 197.978 171.365 198.625 171.654Z" fill="#FFB8B8"/>
<path d="M224.057 257.772H219.745L217.694 241.188L224.058 241.188L224.057 257.772Z" fill="#FFB8B8"/>
<path d="M216.665 256.543H224.981V261.764H211.428C211.428 260.38 211.98 259.052 212.962 258.073C213.944 257.093 215.276 256.543 216.665 256.543Z" fill="#4C4B5A"/>
<path d="M240.829 256.557L236.537 256.979L232.865 240.675L239.198 240.053L240.829 256.557Z" fill="#FFB8B8"/>
<path d="M233.351 256.057L241.628 255.244L242.141 260.44L228.653 261.765C228.586 261.082 228.654 260.393 228.853 259.737C229.053 259.081 229.38 258.471 229.817 257.941C230.253 257.411 230.789 256.972 231.396 256.648C232.002 256.325 232.667 256.124 233.351 256.057Z" fill="#4C4B5A"/>
<path d="M225.258 143.484C230.029 143.484 233.897 139.627 233.897 134.87C233.897 130.113 230.029 126.257 225.258 126.257C220.486 126.257 216.618 130.113 216.618 134.87C216.618 139.627 220.486 143.484 225.258 143.484Z" fill="#FFB8B8"/>
<path d="M218.781 254.418C218.411 254.419 218.052 254.29 217.768 254.052C217.484 253.815 217.293 253.485 217.228 253.122C214.996 240.768 207.7 200.374 207.526 199.256C207.522 199.23 207.52 199.204 207.52 199.178V196.166C207.52 196.056 207.554 195.949 207.619 195.86L208.582 194.514C208.628 194.449 208.688 194.396 208.758 194.358C208.828 194.32 208.905 194.299 208.985 194.295C214.48 194.038 232.476 193.285 233.345 194.368C234.219 195.457 233.91 198.754 233.839 199.405L233.843 199.472L241.928 251.024C241.991 251.435 241.889 251.854 241.645 252.191C241.4 252.528 241.033 252.756 240.621 252.824L235.571 253.654C235.195 253.714 234.81 253.638 234.486 253.439C234.161 253.24 233.919 252.931 233.804 252.569C232.242 247.593 227.005 230.854 225.19 224.378C225.178 224.336 225.152 224.301 225.117 224.278C225.081 224.254 225.038 224.245 224.996 224.251C224.953 224.257 224.915 224.278 224.887 224.31C224.859 224.342 224.844 224.384 224.845 224.426C224.935 230.6 225.154 246.353 225.23 251.794L225.238 252.38C225.242 252.776 225.096 253.16 224.829 253.455C224.562 253.749 224.195 253.933 223.799 253.971L218.929 254.412C218.88 254.416 218.83 254.418 218.781 254.418Z" fill="#4C4B5A"/>
<path d="M219.775 146.871C218.267 147.764 217.365 149.406 216.847 151.077C215.889 154.171 215.312 157.369 215.129 160.602L214.582 170.281L207.809 195.942C213.679 200.894 217.066 199.769 224.968 195.718C232.87 191.667 233.773 197.069 233.773 197.069L235.353 175.235L237.611 151.376C237.104 150.767 236.53 150.217 235.901 149.736C233.814 148.119 231.386 146.994 228.8 146.448C226.214 145.901 223.537 145.947 220.971 146.582L219.775 146.871Z" fill="#0E7FC1"/>
<path d="M217.575 176.837C217.757 176.905 217.934 176.988 218.103 177.084L233.702 169.299L233.961 165.082L240.396 164.639L240.741 174.253L219.894 181.126C219.724 181.854 219.335 182.513 218.78 183.016C218.225 183.518 217.53 183.84 216.787 183.939C216.044 184.038 215.288 183.909 214.62 183.569C213.953 183.229 213.404 182.695 213.049 182.037C212.693 181.379 212.547 180.629 212.629 179.886C212.711 179.143 213.019 178.443 213.51 177.878C214.001 177.314 214.654 176.912 215.38 176.726C216.106 176.54 216.871 176.578 217.575 176.837Z" fill="#FFB8B8"/>
<path d="M237.498 151.485C241.336 152.836 242.012 167.468 242.012 167.468C237.497 164.992 232.078 169.043 232.078 169.043C232.078 169.043 230.949 165.217 229.594 160.265C229.185 158.872 229.136 157.398 229.452 155.981C229.768 154.565 230.438 153.25 231.4 152.161C231.4 152.161 233.659 150.133 237.498 151.485Z" fill="#0E7FC1"/>
<path d="M233.004 137.148C231.928 136.289 230.459 137.85 230.459 137.85L229.598 130.123C229.598 130.123 224.216 130.766 220.771 129.908C217.327 129.051 216.789 133.021 216.789 133.021C216.611 131.417 216.575 129.801 216.681 128.191C216.896 126.26 219.695 124.328 224.647 123.04C229.598 121.752 232.181 127.333 232.181 127.333C235.626 129.05 234.081 138.007 233.004 137.148Z" fill="#4C4B5A"/>
</g>
<defs>
<clipPath id="clip0_18_32">
<rect width="262" height="262" fill="white"/>
</clipPath>
</defs>
</svg>
