<svg width="285" height="250" viewBox="0 0 285 250" fill="none" xmlns="http://www.w3.org/2000/svg">
<g clip-path="url(#clip0_18_109)">
<path d="M13.7518 85.1923L0.0098163 77.4347C-0.175548 69.1347 1.66334 60.9149 5.3668 53.4889C8.53508 67.9018 25.2086 74.759 32.9016 87.3432C35.271 91.2866 36.7246 95.7137 37.1548 100.297C37.585 104.88 36.9807 109.501 35.3868 113.818L36.2906 124.993C29.1882 122.861 22.6315 119.211 17.0721 114.294C11.5127 109.378 7.08285 103.312 4.08771 96.514C2.44514 92.6838 1.29034 88.6616 0.650564 84.5422C7.05767 85.2256 13.7518 85.1923 13.7518 85.1923Z" fill="#F2F2F2"/>
<path d="M260.787 226.325L261.208 216.829C265.601 214.476 270.501 213.233 275.481 213.208C268.626 218.825 269.483 229.653 264.835 237.208C263.368 239.552 261.393 241.536 259.056 243.012C256.72 244.488 254.082 245.418 251.338 245.733L245.601 249.253C244.814 244.855 244.988 240.338 246.11 236.013C247.232 231.689 249.277 227.659 252.102 224.203C253.707 222.279 255.546 220.566 257.578 219.104C258.951 222.735 260.787 226.325 260.787 226.325Z" fill="#F2F2F2"/>
<path d="M246.006 244.366L240.811 244.366L238.34 224.284L246.007 224.285L246.006 244.366Z" fill="#FFB6B6"/>
<path d="M247.331 249.413L230.582 249.412V249.2C230.582 247.467 231.269 245.805 232.491 244.58C233.714 243.354 235.372 242.666 237.101 242.666H237.101L240.161 240.339L245.869 242.666L247.331 242.666L247.331 249.413Z" fill="#4C4B5A"/>
<path d="M221.873 244.366L216.679 244.366L214.208 224.284L221.875 224.285L221.873 244.366Z" fill="#FFB6B6"/>
<path d="M223.198 249.413L206.449 249.412V249.2C206.449 247.467 207.136 245.805 208.359 244.58C209.581 243.354 211.239 242.666 212.968 242.666H212.969L216.028 240.339L221.736 242.666L223.199 242.666L223.198 249.413Z" fill="#4C4B5A"/>
<path d="M219.625 134.58L253.412 135.426C259.829 138.919 259.926 146.48 257.824 155.457C257.824 155.457 258.534 160.792 257.114 162.215C255.694 163.638 254.985 163.638 255.694 166.128C256.404 168.618 252.654 172.684 253.11 173.141C253.565 173.597 254.63 176.087 254.63 176.087L251.081 196.362C251.081 196.362 248.597 231.576 247.887 232.288C247.177 232.999 246.467 232.288 247.177 234.066C247.887 235.845 248.597 235.133 247.887 235.844C247.258 236.524 246.666 237.236 246.112 237.979H237.532C237.532 237.979 236.885 234.422 236.885 234.066C236.885 233.71 236.176 231.576 236.176 231.22C236.176 230.865 236.803 230.236 236.803 230.236C237.02 229.513 237.166 228.77 237.24 228.019C237.24 227.308 239.37 199.919 239.37 199.919L235.111 164.349L224.819 199.208C224.819 199.208 224.819 229.798 224.109 230.509C223.4 231.22 223.4 230.865 223.755 232.288C224.109 233.71 225.529 233.355 224.464 234.422C223.4 235.489 223.045 233.71 223.4 235.489L223.755 237.267L213.108 237.42C213.108 237.42 211.688 234.422 212.398 233.355C213.108 232.288 213.065 232.579 212.199 230.833C211.333 229.086 210.978 228.731 211.333 228.375C211.688 228.019 211.688 226.127 211.688 226.127L213.463 192.094C213.463 192.094 213.818 156.168 213.818 155.101C213.844 154.552 213.743 154.004 213.523 153.501V152.052L214.882 146.92L219.625 134.58Z" fill="#4C4B5A"/>
<path d="M239.921 64.1649C245.719 64.1649 250.419 59.4542 250.419 53.6432C250.419 47.8322 245.719 43.1215 239.921 43.1215C234.124 43.1215 229.424 47.8322 229.424 53.6432C229.424 59.4542 234.124 64.1649 239.921 64.1649Z" fill="#FFB6B6"/>
<path d="M234.672 71.119C232.411 72.4666 231.058 74.9427 230.281 77.4622C228.843 82.1269 227.978 86.9498 227.704 91.8243L226.884 106.418L216.725 137.491C225.529 144.958 258.624 139.188 258.624 139.188C258.624 139.188 259.64 138.849 258.624 137.831C257.608 136.812 256.619 137.714 257.635 136.696C258.651 135.678 257.951 136.812 257.612 135.794C257.274 134.776 257.612 135.455 257.951 135.115C258.29 134.776 255.329 131.721 255.329 131.721L258.038 113.885L261.425 77.9072C257.361 72.816 249.189 69.8148 249.189 69.8148L247.077 66.0051L236.519 66.8517L234.672 71.119Z" fill="#E6E6E6"/>
<path d="M233.233 47.4682C233.639 47.4714 234.043 47.5246 234.436 47.6265C235.212 47.8133 235.999 47.9457 236.793 48.0226C239.223 48.2517 241.506 49.2905 243.279 50.973C245.051 52.6556 246.209 54.8847 246.569 57.3046C247.179 56.7715 248.567 55.791 249.705 56.7023C249.722 56.7167 249.732 56.7242 249.772 56.7052C250.528 56.3459 251.869 51.924 251.91 48.0306C251.931 45.9641 251.606 43.3253 249.939 42.4897L249.851 42.4457L249.828 42.35C249.717 41.8851 248.472 41.0917 246.309 40.4741C242.377 39.3517 236.517 37.1654 233.217 40.383C232.967 41.4677 232.155 43.7889 231.334 44.0521C230.425 44.3433 229.641 44.5946 229.517 45.712C229.414 47.3021 229.421 48.8975 229.539 50.4865C229.847 49.5141 230.452 48.6631 231.268 48.0532C231.848 47.6617 232.533 47.4576 233.233 47.4682Z" fill="#4C4B5A"/>
<path d="M213.693 105.605L230.841 94.5981L222.204 83.0906L213.676 93.6053L187.103 95.2388C186.404 94.5464 185.519 94.0727 184.556 93.8755C183.594 93.6784 182.594 93.7663 181.68 94.1286C180.766 94.4908 179.977 95.1117 179.41 95.9157C178.842 96.7196 178.519 97.6717 178.482 98.656C178.445 99.6403 178.694 100.614 179.199 101.459C179.705 102.304 180.445 102.983 181.328 103.414C182.212 103.844 183.202 104.008 184.177 103.885C185.152 103.761 186.07 103.356 186.82 102.719L213.693 105.605Z" fill="#FFB6B6"/>
<path d="M246.757 79.2342C247.753 85.2712 228.958 96.7992 228.958 96.7992C228.957 95.3822 217.74 106.079 217.233 104.904C215.794 101.564 214.782 93.6534 212.772 92.3872C211.622 91.6631 219.698 84.8606 219.698 84.8606C219.698 84.8606 223.925 80.5921 229.472 75.2081C231.013 73.6568 232.919 72.5213 235.015 71.9072C237.111 71.2932 239.328 71.2207 241.459 71.6963C241.459 71.6963 245.762 73.1973 246.757 79.2342Z" fill="#E6E6E6"/>
<path d="M282.102 108.495L270.759 91.5442L259.464 100.443L270.133 108.766L272.325 135.359C271.649 136.074 271.195 136.971 271.019 137.94C270.843 138.909 270.951 139.908 271.332 140.816C271.713 141.724 272.349 142.502 273.163 143.054C273.977 143.606 274.933 143.909 275.916 143.925C276.899 143.942 277.865 143.671 278.697 143.147C279.529 142.623 280.19 141.867 280.601 140.972C281.012 140.077 281.155 139.082 281.011 138.108C280.867 137.133 280.444 136.222 279.792 135.485L282.102 108.495Z" fill="#FFB6B6"/>
<path d="M255.097 75.921C261.098 74.7959 272.995 93.3853 272.995 93.3853C271.582 93.4156 282.489 104.43 281.328 104.962C278.027 106.475 270.157 107.656 268.937 109.698C268.239 110.866 261.282 102.917 261.282 102.917C261.282 102.917 256.935 98.7715 251.447 93.3266C249.867 91.816 248.694 89.9294 248.037 87.8422C247.38 85.7551 247.261 83.5353 247.69 81.3895C247.69 81.3895 249.096 77.0461 255.097 75.921Z" fill="#E6E6E6"/>
<path d="M285 249.496C285 249.562 284.987 249.628 284.962 249.689C284.937 249.75 284.9 249.806 284.853 249.853C284.806 249.9 284.751 249.937 284.69 249.962C284.629 249.987 284.563 250 284.497 250H166.121C165.987 250 165.86 249.947 165.765 249.852C165.671 249.758 165.618 249.63 165.618 249.496C165.618 249.363 165.671 249.235 165.765 249.14C165.86 249.046 165.987 248.993 166.121 248.993H284.497C284.563 248.992 284.629 249.005 284.69 249.03C284.751 249.056 284.806 249.093 284.853 249.14C284.9 249.186 284.937 249.242 284.962 249.303C284.987 249.364 285 249.43 285 249.496Z" fill="#CCCCCC"/>
<path d="M175.338 96.8475H31.6716C29.4271 96.8501 27.2752 97.7449 25.688 99.3356C24.1009 100.926 23.2081 103.083 23.2056 105.333V194.983C23.2081 197.232 24.1009 199.389 25.688 200.98C27.2752 202.571 29.4271 203.466 31.6716 203.468H175.338C177.582 203.466 179.734 202.571 181.321 200.98C182.908 199.389 183.801 197.232 183.804 194.983V105.333C183.801 103.083 182.908 100.926 181.321 99.3356C179.734 97.7448 177.582 96.8501 175.338 96.8475Z" fill="#0E7FC1"/>
<path d="M175.338 96.8475H31.6716C29.4271 96.8501 27.2752 97.7449 25.688 99.3356C24.1009 100.926 23.2081 103.083 23.2056 105.333V194.983C23.2081 197.232 24.1009 199.389 25.688 200.98C27.2752 202.571 29.4271 203.466 31.6716 203.468H175.338C177.582 203.466 179.734 202.571 181.321 200.98C182.908 199.389 183.801 197.232 183.804 194.983V105.333C183.801 103.083 182.908 100.926 181.321 99.3356C179.734 97.7448 177.582 96.8501 175.338 96.8475ZM178.116 161.244C178.082 170.371 174.48 179.121 168.083 185.617C161.686 192.112 153.004 195.836 143.899 195.99C129.321 196.18 151.965 196.254 134.383 196.254C94.1797 196.254 52.2588 195.869 36.6177 195.62C34.5598 195.577 32.6 194.73 31.1568 193.259C29.7136 191.788 28.9013 189.81 28.8933 187.747V105.34C28.8941 104.601 29.1868 103.892 29.7074 103.369C30.2279 102.846 30.934 102.551 31.671 102.549H175.332C176.069 102.549 176.775 102.843 177.297 103.364C177.819 103.886 178.113 104.593 178.116 105.332V161.244Z" fill="#4C4B5A"/>
<path d="M157.653 45.2244H48.1943C47.2259 45.2258 46.2814 45.5267 45.49 46.0861C44.6985 46.6455 44.0986 47.4361 43.7721 48.3499L26.867 95.8864C26.6147 96.5959 26.536 97.3558 26.6376 98.1021C26.7391 98.8484 27.018 99.5594 27.4506 100.175C27.8833 100.791 28.4572 101.294 29.124 101.641C29.7908 101.989 30.5311 102.171 31.2827 102.172L178.084 102.433H178.091C178.868 102.433 179.632 102.24 180.317 101.87C181.001 101.501 181.583 100.968 182.01 100.318C182.438 99.6676 182.698 98.9214 182.767 98.1458C182.836 97.3702 182.712 96.5895 182.406 95.8738L161.968 48.0763C161.607 47.2294 161.005 46.5076 160.238 46.0006C159.471 45.4936 158.572 45.2236 157.653 45.2244Z" fill="#4C4B5A"/>
<path d="M182.786 96.9061C182.786 97.5435 182.656 98.1742 182.406 98.7602L161.969 135.553C161.605 136.398 161.003 137.118 160.236 137.624C159.469 138.131 158.571 138.401 157.653 138.402H48.196C47.2272 138.401 46.2823 138.101 45.4902 137.542C44.698 136.983 44.0973 136.192 43.7699 135.278L26.8681 98.7475C26.6609 98.1655 26.5702 97.5483 26.6011 96.9311C26.6321 96.314 26.7841 95.709 27.0484 95.1508C27.3128 94.5925 27.6843 94.092 28.1418 93.6777C28.5993 93.2635 29.1337 92.9437 29.7146 92.7366C30.2171 92.5548 30.7472 92.4617 31.2815 92.4615L49.2139 92.4276L56.5329 92.4149L152.842 92.2456L160.166 92.2329L178.085 92.199H178.09C179.335 92.1993 180.53 92.6952 181.41 93.5779C182.291 94.4606 182.786 95.6578 182.786 96.9061Z" fill="#4C4B5A"/>
<path d="M42.4421 164.095C44.6126 164.095 74.4188 165.921 74.4188 168.096C74.4188 170.272 44.6126 171.973 42.4421 171.973C41.3997 171.973 40.4001 171.558 39.6631 170.82C38.926 170.081 38.512 169.079 38.512 168.034C38.512 166.99 38.926 165.988 39.6631 165.249C40.4001 164.51 41.3997 164.095 42.4421 164.095Z" fill="#4C4B5A"/>
<path d="M150.836 16.3057H58.5433C56.0698 16.3086 53.6985 17.2946 51.9496 19.0476C50.2006 20.8006 49.2167 23.1773 49.2139 25.6564V138.402H157.653C158.543 138.405 159.416 138.151 160.166 137.67V25.6564C160.163 23.1773 159.179 20.8006 157.43 19.0476C155.681 17.2947 153.31 16.3086 150.836 16.3057Z" fill="#E6E6E6"/>
<path d="M115.609 23.887H65.0304C62.7781 23.8892 60.6187 24.7866 59.0257 26.3824C57.4327 27.9783 56.5363 30.1422 56.533 32.3996V138.402H152.842V61.2051C152.831 51.3112 148.905 41.8258 141.925 34.8298C134.944 27.8338 125.481 23.8984 115.609 23.887Z" fill="white"/>
<path d="M136.435 128.988H72.9405C72.3917 128.988 71.8653 129.207 71.4772 129.596C71.0891 129.984 70.8711 130.512 70.8711 131.062C70.8711 131.612 71.0891 132.14 71.4772 132.529C71.8653 132.918 72.3917 133.136 72.9405 133.136H136.435C136.983 133.136 137.51 132.918 137.898 132.529C138.286 132.14 138.504 131.612 138.504 131.062C138.504 130.512 138.286 129.984 137.898 129.596C137.51 129.207 136.983 128.988 136.435 128.988Z" fill="#E4E4E4"/>
<path d="M136.435 120.784H72.9407C72.3913 120.784 71.8644 121.003 71.4759 121.393C71.0874 121.782 70.8691 122.31 70.8691 122.861C70.8691 123.411 71.0874 123.939 71.4759 124.329C71.8644 124.718 72.3913 124.937 72.9407 124.937H136.435C136.984 124.937 137.511 124.718 137.899 124.329C138.288 123.939 138.506 123.411 138.506 122.861C138.506 122.31 138.288 121.782 137.899 121.393C137.511 121.003 136.984 120.784 136.435 120.784Z" fill="#E4E4E4"/>
<path d="M100.464 112.585H72.9405C72.3917 112.585 71.8653 112.804 71.4772 113.193C71.0891 113.582 70.8711 114.109 70.8711 114.659C70.8711 115.209 71.0891 115.737 71.4772 116.126C71.8653 116.515 72.3917 116.733 72.9405 116.733H100.464C101.013 116.733 101.539 116.515 101.927 116.126C102.316 115.737 102.534 115.209 102.534 114.659C102.534 114.109 102.316 113.582 101.927 113.193C101.539 112.804 101.013 112.585 100.464 112.585Z" fill="#E4E4E4"/>
<path d="M136.435 95.4077H72.9407C72.3913 95.4077 71.8644 95.6264 71.4759 96.0158C71.0874 96.4052 70.8691 96.9333 70.8691 97.4839C70.8691 98.0346 71.0874 98.5627 71.4759 98.9521C71.8644 99.3415 72.3913 99.5602 72.9407 99.5602H136.435C136.984 99.5602 137.511 99.3415 137.899 98.9521C138.288 98.5627 138.506 98.0346 138.506 97.4839C138.506 96.9333 138.288 96.4052 137.899 96.0158C137.511 95.6264 136.984 95.4077 136.435 95.4077Z" fill="#E4E4E4"/>
<path d="M136.435 87.2083H72.9405C72.3917 87.2083 71.8653 87.4269 71.4772 87.8159C71.0891 88.2048 70.8711 88.7324 70.8711 89.2825C70.8711 89.8326 71.0891 90.3602 71.4772 90.7492C71.8653 91.1381 72.3917 91.3567 72.9405 91.3567H136.435C136.983 91.3567 137.51 91.1381 137.898 90.7492C138.286 90.3602 138.504 89.8326 138.504 89.2825C138.504 88.7324 138.286 88.2048 137.898 87.8159C137.51 87.4269 136.983 87.2083 136.435 87.2083Z" fill="#E4E4E4"/>
<path d="M100.464 79.0048H72.9407C72.3913 79.0048 71.8644 79.2236 71.4759 79.6129C71.0874 80.0023 70.8691 80.5304 70.8691 81.0811C70.8691 81.6317 71.0874 82.1599 71.4759 82.5492C71.8644 82.9386 72.3913 83.1574 72.9407 83.1574H100.464C101.014 83.1574 101.541 82.9386 101.929 82.5492C102.318 82.1599 102.536 81.6317 102.536 81.0811C102.536 80.5304 102.318 80.0023 101.929 79.6129C101.541 79.2236 101.014 79.0048 100.464 79.0048Z" fill="#E4E4E4"/>
<path d="M136.435 61.8273H72.9407C72.3913 61.8273 71.8644 62.0461 71.4759 62.4354C71.0874 62.8248 70.8691 63.3529 70.8691 63.9036C70.8691 64.4543 71.0874 64.9824 71.4759 65.3718C71.8644 65.7611 72.3913 65.9799 72.9407 65.9799H136.435C136.984 65.9799 137.511 65.7611 137.899 65.3718C138.288 64.9824 138.506 64.4543 138.506 63.9036C138.506 63.3529 138.288 62.8248 137.899 62.4354C137.511 62.0461 136.984 61.8273 136.435 61.8273Z" fill="#0E7FC1"/>
<path d="M136.435 53.628H72.9407C72.3913 53.628 71.8644 53.8468 71.4759 54.2361C71.0874 54.6255 70.8691 55.1536 70.8691 55.7043C70.8691 56.255 71.0874 56.7831 71.4759 57.1724C71.8644 57.5618 72.3913 57.7806 72.9407 57.7806H136.435C136.984 57.7806 137.511 57.5618 137.899 57.1724C138.288 56.7831 138.506 56.255 138.506 55.7043C138.506 55.1536 138.288 54.6255 137.899 54.2361C137.511 53.8468 136.984 53.628 136.435 53.628Z" fill="#0E7FC1"/>
<path d="M100.464 45.4245H72.9407C72.3913 45.4245 71.8644 45.6432 71.4759 46.0326C71.0874 46.422 70.8691 46.9501 70.8691 47.5007C70.8691 48.0514 71.0874 48.5795 71.4759 48.9689C71.8644 49.3583 72.3913 49.577 72.9407 49.577H100.464C101.014 49.577 101.541 49.3583 101.929 48.9689C102.318 48.5795 102.536 48.0514 102.536 47.5007C102.536 46.9501 102.318 46.422 101.929 46.0326C101.541 45.6432 101.014 45.4245 100.464 45.4245Z" fill="#0E7FC1"/>
<path d="M156.706 32.3086C165.607 32.3086 172.823 25.0761 172.823 16.1543C172.823 7.23252 165.607 0 156.706 0C147.804 0 140.588 7.23252 140.588 16.1543C140.588 25.0761 147.804 32.3086 156.706 32.3086Z" fill="#0E7FC1"/>
<path d="M154.507 24.5618C154.228 24.5618 153.954 24.4969 153.705 24.3721C153.456 24.2473 153.24 24.0661 153.073 23.8429L148.675 17.9666C148.533 17.7779 148.43 17.563 148.371 17.3341C148.312 17.1052 148.299 16.8669 148.332 16.6329C148.365 16.3988 148.443 16.1736 148.564 15.9701C148.684 15.7666 148.842 15.5889 149.031 15.447C149.22 15.3052 149.435 15.2021 149.663 15.1436C149.892 15.0851 150.129 15.0724 150.363 15.1061C150.596 15.1399 150.821 15.2195 151.023 15.3403C151.226 15.4612 151.403 15.6209 151.544 15.8104L154.421 19.6546L161.809 8.54662C162.073 8.15008 162.483 7.8748 162.949 7.78133C163.416 7.68787 163.9 7.78388 164.296 8.04824C164.691 8.3126 164.966 8.72366 165.059 9.191C165.152 9.65833 165.057 10.1436 164.793 10.5402L155.999 23.7616C155.84 24.0007 155.626 24.1981 155.375 24.3373C155.124 24.4764 154.843 24.5532 154.557 24.5613C154.54 24.5616 154.523 24.5618 154.507 24.5618Z" fill="white"/>
</g>
<defs>
<clipPath id="clip0_18_109">
<rect width="285" height="250" fill="white"/>
</clipPath>
</defs>
</svg>
