<svg width="170" height="201" viewBox="0 0 170 201" fill="none" xmlns="http://www.w3.org/2000/svg">
<g clip-path="url(#clip0_5_525)">
<path d="M120.897 168.48L122.578 200.767C122.578 200.767 51.4481 133.066 42.5865 113.258C33.725 93.45 50.4056 44.4507 50.4056 44.4507L87.4157 64.7802L120.897 168.48Z" fill="#9F616A"/>
<path d="M11.8316 30.8977L0.884965 31.9402C0.884965 31.9402 -4.84901 44.4507 12.8742 45.4932L11.8316 30.8977Z" fill="#9F616A"/>
<path d="M11.8316 50.1847L0.884965 51.2272C0.884965 51.2272 -4.84901 63.7377 12.8742 64.7802L11.8316 50.1847Z" fill="#9F616A"/>
<path d="M11.8316 71.0354L0.884965 72.078C0.884965 72.078 -4.84901 84.5884 12.8742 85.631L11.8316 71.0354Z" fill="#9F616A"/>
<path d="M14.9593 91.8862L4.01265 92.9287C4.01265 92.9287 -1.72133 105.439 16.0018 106.482L14.9593 91.8862Z" fill="#9F616A"/>
<path d="M6.50244 35.9236H7.33305V13.1695C7.33304 11.44 7.67368 9.72754 8.33551 8.12974C8.99734 6.53195 9.96739 5.08015 11.1903 3.85725C12.4132 2.63435 13.865 1.6643 15.4628 1.00247C17.0606 0.340639 18.7731 -2.48967e-06 20.5025 -3.81467e-06H68.7102C70.4397 -7.348e-06 72.1522 0.340629 73.75 1.00245C75.3478 1.66428 76.7996 2.63433 78.0225 3.85723C79.2454 5.08012 80.2154 6.53191 80.8773 8.1297C81.5391 9.72749 81.8797 11.44 81.8797 13.1694V138C81.8797 139.73 81.5391 141.442 80.8773 143.04C80.2154 144.638 79.2454 146.09 78.0225 147.313C76.7996 148.536 75.3478 149.506 73.75 150.167C72.1522 150.829 70.4397 151.17 68.7103 151.17H20.5026C17.0098 151.17 13.6601 149.782 11.1903 147.313C8.72057 144.843 7.33307 141.493 7.33306 138V52.1204H6.50244V35.9236Z" fill="#3F3D56"/>
<path d="M19.9711 3.42624H26.2638C25.9744 4.13572 25.8639 4.90547 25.9421 5.6677C26.0203 6.42993 26.2847 7.16123 26.7121 7.79718C27.1395 8.43313 27.7167 8.95423 28.393 9.31454C29.0692 9.67486 29.8236 9.86336 30.5898 9.86341H58.2074C58.9737 9.86336 59.7281 9.67487 60.4043 9.31455C61.0806 8.95423 61.6578 8.43314 62.0852 7.79718C62.5126 7.16123 62.777 6.42993 62.8552 5.6677C62.9334 4.90547 62.8229 4.13571 62.5335 3.42623H68.4109C71.0193 3.42623 73.5208 4.46239 75.3652 6.30677C77.2096 8.15115 78.2458 10.6527 78.2458 13.261V137.909C78.2458 139.2 77.9914 140.479 77.4971 141.672C77.0029 142.866 76.2785 143.95 75.3652 144.863C74.452 145.776 73.3678 146.501 72.1746 146.995C70.9813 147.489 69.7025 147.744 68.4109 147.744H19.9711C18.6795 147.744 17.4006 147.489 16.2074 146.995C15.0142 146.501 13.93 145.776 13.0168 144.863C12.1035 143.95 11.3791 142.866 10.8849 141.672C10.3906 140.479 10.1362 139.2 10.1362 137.909V13.261C10.1362 11.9695 10.3906 10.6906 10.8849 9.49742C11.3791 8.30421 12.1035 7.22003 13.0168 6.30678C13.93 5.39354 15.0142 4.66911 16.2074 4.17487C17.4006 3.68062 18.6795 3.42624 19.9711 3.42624Z" fill="white"/>
<path d="M54.569 38.3464H33.8127V43.355H54.569V38.3464Z" fill="#0E7FC1"/>
<path d="M55.5573 59.8685H32.8247V64.8771H55.5573V59.8685Z" fill="#E5E5E5"/>
<path d="M69.5596 70.6277H18.8225V75.6364H69.5596V70.6277Z" fill="#E5E5E5"/>
<path d="M69.5596 81.387H18.8225V86.3957H69.5596V81.387Z" fill="#E5E5E5"/>
<path d="M170 185.296L111.655 118.732L109.569 75.9875L87.6762 39.4986L81.4209 23.8606C81.4209 23.8606 66.8254 25.4244 78.8146 55.1367L83.7666 71.0354C79.3028 80.65 76.9902 91.1226 76.9902 101.723V138.155C76.9902 146.733 117.87 193.461 122.629 200.598L170 185.296Z" fill="#9F616A"/>
<path opacity="0.2" d="M83.1374 42.5906L87.4898 40.4516L87.3415 40.1496L83.3201 42.1262L77.2494 26.2103L76.9353 26.3304L83.1374 42.5906Z" fill="black"/>
<path opacity="0.2" d="M0.943172 31.7819L0.826904 32.0975L7.27451 34.4726L7.39077 34.157L0.943172 31.7819Z" fill="black"/>
<path opacity="0.2" d="M0.943172 51.2887L0.826904 51.6043L7.27451 53.9794L7.39077 53.6637L0.943172 51.2887Z" fill="black"/>
<path opacity="0.2" d="M0.943172 72.1407L0.826904 72.4563L7.27451 74.8314L7.39077 74.5158L0.943172 72.1407Z" fill="black"/>
<path opacity="0.2" d="M4.32128 92.9989L4.17578 93.3021L7.31485 94.8087L7.46035 94.5055L4.32128 92.9989Z" fill="black"/>
<path d="M44.2167 129.621C52.2465 129.621 58.756 123.111 58.756 115.081C58.756 107.052 52.2465 100.542 44.2167 100.542C36.1869 100.542 29.6775 107.052 29.6775 115.081C29.6775 123.111 36.1869 129.621 44.2167 129.621Z" fill="#0E7FC1"/>
<path d="M42.8311 121.219L38.4797 115.624L41.0102 113.655L43.0705 116.305L50.0314 108.957L52.3591 111.162L42.8311 121.219Z" fill="white"/>
</g>
<defs>
<clipPath id="clip0_5_525">
<rect width="170" height="200.767" fill="white"/>
</clipPath>
</defs>
</svg>
